<svg xmlns="http://www.w3.org/2000/svg" width="32" height="32" viewBox="0 0 200 200">
	<!-- Favicon aus dem Launcher-Icon der Android-App (ic_launcher_foreground). -->
	<title>Alarmierung</title>
	<g transform="scale(0.1953125)">
		<path
			fill="#ffffff"
			d="M512,0 A512,512 0 1,1 512,1024 A512,512 0 0,1 512,0"
		/>
		<path
			fill="none"
			stroke="#ff0000"
			stroke-width="80"
			d="M512,40 A472,472 0 1,1 512,984 A472,472 0 0,1 512,40"
		/>

		<g transform="translate(-30)">
			<path
				fill="none"
				stroke="#ff0000"
				stroke-width="26"
				d="M320,388 A6,13 0 1,0 320,588"
			/>
			<path
				fill="#ff0000"
				d="M320,375 A1,1 0 1,1 320,401 M320,575 A1,1 0 1,1 320,601"
			/>
			<g transform="translate(10)">
				<path
					fill="none"
					stroke="#ff0000"
					stroke-width="26"
					d="M360,425 A6,13 0 1,0 360,551"
				/>
				<path
					fill="#ff0000"
					d="M360,412 A1,1 0 1,1 360,438 M360,538 A1,1 0 1,1 360,564"
				/>
			</g>
		</g>

		<g transform="translate(30)">
			<path
				fill="none"
				stroke="#ff0000"
				stroke-width="26"
				d="M712,388 A6,13 0 1,1 712,588"
			/>
			<path
				fill="#ff0000"
				d="M712,375 A1,1 0 1,0 712,401 M712,575 A1,1 0 1,0 712,601"
			/>
			<g transform="translate(-10)">
				<path
					fill="none"
					stroke="#ff0000"
					stroke-width="26"
					d="M672,425 A6,13 0 1,1 672,551"
				/>
				<path
					fill="#ff0000"
					d="M672,412 A1,1 0 1,0 672,438 M672,538 A1,1 0 1,0 672,564"
				/>
			</g>
		</g>

		<path
			fill="none"
			stroke="#ff0000"
			stroke-width="20"
			d="M483,365 A30,30 0 1,1 541,365"
		/>
		<path
			fill="#ff0000"
			stroke="#ff0000"
			stroke-width="20"
			d="M410,470 A6,6 0 1,1 614,470"
		/>
		<path
			fill="#ff0000"
			stroke="#ff0000"
			d="M400,470 C400,480 400,600 340,652 L684,652 C624,600 624,480 624,470"
		/>
		<path fill="#ff0000" d="M474,665 A1,1 0 1,0 554,665" />
	</g>
</svg>
